<svg version="1.1" id="Layer_1" xmlns="http://www.w3.org/2000/svg" x="0" y="0" viewBox="0 0 512 512" xml:space="preserve"><style>.st0{fill:#6ebe58}</style><path class="st0" d="M234.047 74.043l-10.965-57.409-9.193 1.75-9.178 1.753 10.974 57.419s1.59 14.576-5.59 23.681l18.945-3.621 18.944-3.624c-10.045-5.816-13.937-19.949-13.937-19.949z"/><path class="st0" d="M240.157 13.369c1.09 5.71-9.777 12.587-24.287 15.353-14.503 2.77-27.154.392-28.246-5.32-1.08-5.697 9.798-12.574 24.299-15.355 14.5-2.767 27.139-.387 28.234 5.322zm54.671 81.618l8.606-57.808-9.255-1.385-9.245-1.372-8.608 57.82s-3.309 14.272-13.105 20.501l19.084 2.834 19.077 2.842c-7.55-8.813-6.554-23.432-6.554-23.432z"/><path class="st0" d="M320.63 39.732c-.855 5.752-13.39 8.649-27.997 6.476-14.61-2.173-25.757-8.597-24.905-14.348.867-5.753 13.4-8.64 28.01-6.467 14.597 2.185 25.744 8.597 24.892 14.339zm36.16 63.008l31.757-49.06-7.86-5.083-7.852-5.082-31.758 49.07s-8.91 11.637-20.395 13.238l16.19 10.49 16.186 10.477c-3.234-11.138 3.731-24.05 3.731-24.05z"/><path class="st0" d="M403.145 63.122c-3.168 4.875-15.776 2.324-28.168-5.7-12.393-8.025-19.898-18.478-16.74-23.357 3.156-4.887 15.776-2.336 28.168 5.688 12.404 8.022 19.899 18.49 16.74 23.369zm.508 83.336l43.761-38.742-6.205-6.997-6.198-7.007-43.77 38.744s-11.701 8.814-23.207 7.277l12.78 14.446 12.782 14.449c-.106-11.604 10.057-22.17 10.057-22.17z"/><path class="st0" d="M458.932 120.735c-4.348 3.85-15.8-1.99-25.608-13.053-9.774-11.052-14.187-23.14-9.838-26.99 4.357-3.849 15.818 1.99 25.605 13.053 9.786 11.05 14.208 23.14 9.841 26.99zm-45.126 91.069l53.462-23.627-3.795-8.563-3.774-8.543-53.462 23.637s-13.83 4.844-24.318-.107l7.785 17.626 7.806 17.645c3.396-11.084 16.296-18.068 16.296-18.068z"/><path class="st0" d="M474.285 204.071c-5.298 2.359-14.458-6.692-20.425-20.197-5.971-13.496-6.498-26.363-1.19-28.71 5.31-2.348 14.457 6.693 20.437 20.21 5.968 13.494 6.5 26.351 1.178 28.697zm-35.575 62.826l58.435.974.152-9.343.162-9.364-58.447-.952s-14.598-1.418-22.038-10.316l-.323 19.29-.325 19.291c7.744-8.64 22.385-9.58 22.385-9.58z"/><path class="st0" d="M496.865 285.26c-5.818-.098-10.328-12.155-10.09-26.917.249-14.76 5.157-26.652 10.964-26.567 5.818.11 10.328 12.155 10.079 26.926-.25 14.75-5.147 26.655-10.953 26.557zm-70.969 44.268l55.127 19.422 3.113-8.813 3.104-8.823-55.138-19.411s-13.385-5.969-17.636-16.76l-6.412 18.199-6.412 18.198c10.079-5.755 24.254-2.012 24.254-2.012z"/><path class="st0" d="M475.247 365.353c-5.47-1.924-5.935-14.782-1.038-28.722 4.9-13.916 13.323-23.645 18.804-21.722 5.484 1.924 5.95 14.793 1.04 28.721-4.899 13.926-13.322 23.658-18.806 21.723zm-100.044 1.827l40.907 41.75 6.682-6.542 6.683-6.552-40.918-41.74s-9.385-11.266-8.445-22.815l-13.776 13.493-13.777 13.497c11.582-.703 22.644 8.91 22.644 8.91z"/><path class="st0" d="M403.708 421.096c-4.077-4.153 1.178-15.897 11.722-26.234 10.552-10.338 22.392-15.353 26.458-11.202 4.078 4.154-1.187 15.894-11.731 26.232-10.543 10.337-22.395 15.356-26.449 11.204zm-65.963-2.823l27.93 51.341 8.208-4.465 8.219-4.476-27.942-51.341s-5.947-13.387-1.89-24.257l-16.935 9.224-16.944 9.214c11.332 2.487 19.354 14.76 19.354 14.76z"/><path class="st0" d="M350.408 477.93c-2.779-5.103 5.471-14.966 18.447-22.026 12.977-7.062 25.748-8.64 28.527-3.536 2.769 5.104-5.493 14.966-18.47 22.017-12.966 7.06-25.735 8.649-28.504 3.546zm-71.271-40.863l9.063 57.744 9.245-1.46 9.235-1.437-9.062-57.756s-1.114-14.61 6.369-23.465l-19.043 2.985-19.063 2.985c9.83 6.15 13.256 20.404 13.256 20.404z"/><path class="st0" d="M271.027 497.501c-.898-5.73 10.198-12.24 24.784-14.53 14.588-2.295 27.153.495 28.05 6.25.908 5.73-10.196 12.24-24.783 14.53-14.588 2.293-27.141-.507-28.051-6.25zm-51.569-79.907l-12.986 56.984 9.115 2.075 9.127 2.078 12.976-56.986s4.39-13.993 14.63-19.443l-18.803-4.282-18.816-4.293c6.857 9.354 4.757 23.867 4.757 23.867z"/><path class="st0" d="M189.528 470.718c1.287-5.654 14.005-7.601 28.405-4.315 14.394 3.277 25.033 10.533 23.737 16.199-1.3 5.666-14.014 7.59-28.417 4.315-14.394-3.277-25.024-10.532-23.725-16.199zm-31.283-61.69L126.8 458.305l7.882 5.028 7.894 5.039 31.435-49.287s8.844-11.68 20.329-13.365l-16.254-10.371-16.263-10.38c3.287 11.116-3.578 24.059-3.578 24.059z"/><path class="st0" d="M112.147 448.95c3.116-4.887 15.745-2.421 28.201 5.515 12.446 7.949 20.005 18.362 16.868 23.25-3.113 4.908-15.742 2.443-28.2-5.515-12.447-7.937-20.004-18.35-16.869-23.25zm15.679-95.092l-46.734 35.1 5.623 7.483 5.624 7.471 46.734-35.109s12.38-7.851 23.724-5.395l-11.591-15.423-11.592-15.429c-.802 11.57-11.788 21.302-11.788 21.302z"/><path class="st0" d="M70.657 375.054c4.638-3.484 15.602 3.253 24.481 15.073 8.868 11.797 12.295 24.2 7.645 27.683-4.65 3.502-15.605-3.246-24.482-15.054-8.867-11.808-12.294-24.2-7.644-27.702zm9.257-64.254l-55.592 18.06 2.887 8.889 2.907 8.886L85.7 328.576s14.251-3.405 24.187 2.596l-5.958-18.339-5.968-18.362c-4.508 10.685-18.046 16.33-18.046 16.33z"/><path class="st0" d="M18.948 312.313c5.526-1.795 13.712 8.132 18.286 22.188 4.55 14.038 3.773 26.883-1.753 28.679-5.536 1.795-13.712-8.132-18.274-22.188-4.565-14.038-3.786-26.884 1.74-28.679zM72.7 247.077l-58.445-.097-.012 9.342-.021 9.364 58.458.088s14.608 1.188 22.188 9.97l.033-19.29.03-19.282c-7.612 8.746-22.232 9.905-22.232 9.905z"/><path class="st0" d="M14.276 229.603c5.806 0 10.5 11.981 10.49 26.752-.033 14.76-4.76 26.731-10.566 26.72-5.818 0-10.51-11.981-10.487-26.753.019-14.77 4.757-26.74 10.563-26.719zm89.761-41.146l-56.608-14.586-2.325 9.062-2.335 9.05 56.609 14.577s13.852 4.779 19.02 15.159l4.81-18.662 4.812-18.687c-9.537 6.597-23.983 4.087-23.983 4.087z"/><path class="st0" d="M51.765 157.033c5.623 1.452 7.203 14.233 3.527 28.527-3.698 14.296-11.236 24.72-16.86 23.27-5.632-1.448-7.211-14.22-3.526-28.525 3.69-14.297 11.226-24.72 16.86-23.272zm73.401-23.529L79.232 97.357l-5.775 7.352-5.785 7.353 45.936 36.149s10.758 9.948 11.31 21.54l11.927-15.161 11.927-15.159c-11.387 2.183-23.606-5.927-23.606-5.927z"/><path class="st0" d="M89.992 83.7c4.562 3.588.865 15.915-8.273 27.519-9.127 11.603-20.232 18.1-24.796 14.5-4.574-3.59-.876-15.918 8.262-27.52 9.126-11.602 20.243-18.1 24.807-14.5zm90.745 22.47l-27.91-51.353-8.219 4.465-8.216 4.476L164.3 115.11s5.958 13.387 1.868 24.254l16.947-9.212 16.966-9.214c-11.344-2.487-19.345-14.77-19.345-14.77z"/><path class="st0" d="M168.105 46.512c2.769 5.091-5.502 14.954-18.478 22.015-12.965 7.05-25.748 8.63-28.515 3.526-2.778-5.115 5.505-14.966 18.478-22.017 12.967-7.05 25.739-8.64 28.515-3.524zM416.316 229.29c-2.197-12.718 6.324-24.829 19.053-27.035l.314-.043a188.381 188.381 0 00-6.358-17.647l-.282.152c-11.202 6.433-25.499 2.572-31.92-8.63-6.436-11.202-2.565-25.496 8.628-31.92l.25-.14a188.976 188.976 0 00-12.037-14.373l-.173.207c-8.314 9.872-23.064 11.147-32.948 2.821-9.872-8.305-11.138-23.052-2.822-32.936l.171-.207a189.03 189.03 0 00-16.217-9.397l-.088.261c-4.434 12.131-17.852 18.372-29.996 13.95-12.112-4.434-18.36-17.854-13.938-29.975l.097-.26a185.299 185.299 0 00-18.469-3.243v.247c0 12.912-10.468 23.39-23.368 23.39-12.921 0-23.39-10.478-23.39-23.39v-.247a182.837 182.837 0 00-17.16 2.94l.097.26c4.346 12.154-1.999 25.54-14.153 29.886-12.167 4.327-25.542-2.009-29.89-14.163l-.085-.262a185.962 185.962 0 00-16.275 9.279l.162.204c8.24 9.939 6.868 24.68-3.06 32.93-9.938 8.238-24.676 6.865-32.938-3.074l-.15-.182a189.167 189.167 0 00-12.133 14.284l.238.13c11.138 6.51 14.902 20.825 8.392 31.975-6.499 11.148-20.826 14.912-31.976 8.402l-.28-.151a188.285 188.285 0 00-6.5 17.592l.335.055c12.695 2.291 21.14 14.467 18.848 27.163C94.004 240.86 81.85 249.293 69.132 247l-.28-.042c-.173 3.32-.27 6.67-.27 10.033 0 2.921.085 5.818.216 8.706l.28-.043c12.717-2.206 24.816 6.325 27.023 19.042 2.196 12.738-6.337 24.826-19.066 27.032l-.3.055a186.012 186.012 0 006.347 17.659l.292-.173c11.202-6.424 25.487-2.565 31.92 8.627 6.436 11.205 2.562 25.499-8.64 31.923l-.237.152a186.686 186.686 0 0012.045 14.358l.152-.192c8.317-9.884 23.076-11.15 32.948-2.836 9.884 8.317 11.147 23.076 2.824 32.948l-.152.207a185.054 185.054 0 0016.198 9.397l.107-.261c4.413-12.121 17.842-18.37 29.975-13.947 12.133 4.422 18.372 17.851 13.95 29.984l-.11.25a189.521 189.521 0 0018.47 3.231v-.237c0-12.921 10.468-23.378 23.39-23.378 12.9 0 23.368 10.457 23.368 23.378v.237a181.863 181.863 0 0017.16-2.93l-.098-.269c-4.336-12.156 2.012-25.543 14.166-29.88 12.154-4.333 25.541 2.002 29.878 14.178l.097.26a188.842 188.842 0 0016.284-9.3l-.173-.195c-8.238-9.936-6.875-24.675 3.061-32.915 9.936-8.26 24.687-6.878 32.927 3.049l.15.195a188.238 188.238 0 0012.132-14.285l-.216-.128c-11.159-6.512-14.923-20.839-8.411-31.977 6.51-11.16 20.827-14.92 31.986-8.412l.28.172a188.71 188.71 0 006.498-17.603l-.323-.066c-12.708-2.292-21.162-14.444-18.87-27.161 2.303-12.696 14.467-21.153 27.163-18.858l.282.052a181.5 181.5 0 00.28-10.045c0-2.919-.096-5.816-.227-8.695l-.259.045c-12.727 2.204-24.827-6.338-27.033-19.053z"/><path d="M218.183 196.308c0 17.842-14.458 32.31-32.3 32.31s-32.31-14.468-32.31-32.31c0-17.842 14.468-32.31 32.31-32.31s32.3 14.468 32.3 32.31zm70.33 67.777c0 17.854-14.47 32.31-32.3 32.31-17.851 0-32.31-14.456-32.31-32.31 0-17.841 14.459-32.309 32.31-32.309 17.83 0 32.3 14.468 32.3 32.31zm-94.477 43.968c0 17.842-14.468 32.31-32.3 32.31-17.852 0-32.31-14.468-32.31-32.31 0-17.842 14.458-32.31 32.31-32.31 17.832 0 32.3 14.468 32.3 32.31zm126.786-161.4c0 17.842-14.467 32.312-32.31 32.312s-32.299-14.47-32.299-32.312 14.458-32.31 32.3-32.31 32.31 14.468 32.31 32.31zm-65.257-59.375c1.774 8.737-10.955 18.716-28.45 22.264-17.474 3.557-33.1-.648-34.873-9.385-1.773-8.749 10.954-18.709 28.427-22.276 17.498-3.546 33.11.648 34.896 9.397zm150.273 248.458c5.892 6.704-.195 21.692-13.603 33.457-13.41 11.786-29.046 15.894-34.938 9.19-5.894-6.704.204-21.691 13.612-33.456 13.4-11.787 29.047-15.895 34.93-9.19zM96.837 224.034c8.91-.185 16.445 14.123 16.825 31.963.368 17.842-6.564 32.461-15.486 32.634-8.91.196-16.445-14.12-16.826-31.964-.365-17.83 6.555-32.438 15.487-32.633zm54.445 144.617c5.362-7.127 21.269-4.196 35.52 6.543 14.251 10.736 21.454 25.227 16.07 32.342-5.365 7.137-21.27 4.197-35.51-6.53-14.254-10.749-21.454-25.24-16.08-32.355zM358.15 136.154c6.38-6.22 21.66-.91 34.107 11.872 12.456 12.772 17.365 28.192 10.986 34.42-6.403 6.227-21.67.908-34.126-11.873-12.459-12.782-17.368-28.202-10.968-34.419zm48.057 120.299c0 17.84-14.47 32.31-32.313 32.31-17.841 0-32.309-14.47-32.309-32.31 0-17.842 14.468-32.312 32.31-32.312 17.842 0 32.312 14.47 32.312 32.312zm-87.33 109.149c0 17.842-14.47 32.31-32.312 32.31-17.839 0-32.309-14.468-32.309-32.31 0-17.842 14.47-32.31 32.31-32.31 17.841 0 32.311 14.468 32.311 32.31z" fill="#96cc77"/></svg>